<?xml version="1.0" encoding="UTF-8" standalone="no"?>
<svg
   fill="none"
   viewBox="0 0 64 28"
   width="28"
   version="1.1"
   id="svg1"
   height="28"
   xmlns="http://www.w3.org/2000/svg"
   xmlns:svg="http://www.w3.org/2000/svg">
  <defs
     id="defs1" />
  <path
     fill="#777777"
     d="m 13.873,-10.461124 c 7.337,5.5270001 15.23,16.7320001 18.127,22.745 v 15.882 c 0,-0.338 -0.13,0.044 -0.41,0.867 -1.512,4.456 -7.418,21.847 -20.923,7.944 -7.111,-7.32 -3.819,-14.64 9.125,-16.85 -7.405,1.264 -15.73,-0.825 -18.014,-9.015 C 1.12,8.7558761 0,-5.7561239 0,-7.7161239 0,-17.534124 8.579,-14.448124 13.873,-10.461124 Z m 36.254,0 C 42.79,-4.9341239 34.897,6.2708761 32,12.283876 v 15.882 c 0,-0.338 0.13,0.044 0.41,0.867 1.512,4.456 7.418,21.847 20.923,7.944 7.111,-7.32 3.819,-14.64 -9.125,-16.85 7.405,1.264 15.73,-0.825 18.014,-9.015 C 62.88,8.7558761 64,-5.7561239 64,-7.7161239 64,-17.534124 55.422,-14.448124 50.127,-10.461124 Z"
     id="path1" />
</svg>
