<?xml version="1.0" encoding="UTF-8" standalone="no"?>
<svg
   role="img"
   viewBox="0 0 24 24"
   id="Facebook--Streamline-Simple-Icons"
   height="24"
   width="24"
   version="1.1"
   sodipodi:docname="facebook.svg"
   inkscape:version="1.4 (86a8ad7, 2024-10-11)"
   xmlns:inkscape="http://www.inkscape.org/namespaces/inkscape"
   xmlns:sodipodi="http://sodipodi.sourceforge.net/DTD/sodipodi-0.dtd"
   xmlns="http://www.w3.org/2000/svg"
   xmlns:svg="http://www.w3.org/2000/svg">
  <defs
     id="defs1" />
  <sodipodi:namedview
     id="namedview1"
     pagecolor="#ffffff"
     bordercolor="#999999"
     borderopacity="1"
     inkscape:showpageshadow="2"
     inkscape:pageopacity="0"
     inkscape:pagecheckerboard="0"
     inkscape:deskcolor="#d1d1d1"
     inkscape:zoom="33.625"
     inkscape:cx="12"
     inkscape:cy="12"
     inkscape:window-width="1920"
     inkscape:window-height="1009"
     inkscape:window-x="-8"
     inkscape:window-y="-8"
     inkscape:window-maximized="1"
     inkscape:current-layer="Facebook--Streamline-Simple-Icons" />
  <desc
     id="desc1">
    Facebook Streamline Icon: https://streamlinehq.com
  </desc>
  <title
     id="title1">Facebook</title>
  <path
     d="M9.101 23.691v-7.98H6.627v-3.667h2.474v-1.58c0 -4.085 1.848 -5.978 5.858 -5.978 0.401 0 0.955 0.042 1.468 0.103a8.68 8.68 0 0 1 1.141 0.195v3.325a8.623 8.623 0 0 0 -0.653 -0.036 26.805 26.805 0 0 0 -0.733 -0.009c-0.707 0 -1.259 0.096 -1.675 0.309a1.686 1.686 0 0 0 -0.679 0.622c-0.258 0.42 -0.374 0.995 -0.374 1.752v1.297h3.919l-0.386 2.103 -0.287 1.564h-3.246v8.245C19.396 23.238 24 18.179 24 12.044c0 -6.627 -5.373 -12 -12 -12s-12 5.373 -12 12c0 5.628 3.874 10.35 9.101 11.647Z"
     fill="#000000"
     stroke-width="1"
     id="path1"
     style="fill:#666666;fill-opacity:1" />
</svg>
