<?xml version="1.0" encoding="UTF-8" standalone="no"?>
<svg
   viewBox="0 0 16 16"
   fill="none"
   id="Github--Streamline-Unicons"
   height="16"
   width="16"
   version="1.1"
   xmlns="http://www.w3.org/2000/svg"
   xmlns:svg="http://www.w3.org/2000/svg">
  <defs
     id="defs1" />
  <desc
     id="desc1">
    Github Streamline Icon: https://streamlinehq.com
  </desc>
  <path
     d="M 7.999951,0.198 C 6.1003519,0.19806802 4.2627259,0.87411629 2.8159856,2.1050574 1.3691773,3.3359984 0.40760907,5.0416292 0.10332219,6.9167141 -0.20096469,8.7917308 0.17189389,10.71389 1.155163,12.339249 c 0.983201,1.625222 2.5127307,2.847661 4.3148464,3.448472 0.4000015,0.07 0.5500021,-0.169998 0.5500021,-0.379996 0,-0.189999 -0.01,-0.819994 -0.01,-1.489987 C 4.0000038,14.287734 3.4800018,13.427811 3.3200012,12.977815 3.1424495,12.5402 2.8610198,12.152381 2.4999981,11.847826 c -0.2800012,-0.149999 -0.6800026,-0.519995 -0.01,-0.529996 0.2558513,0.02776 0.5011584,0.116802 0.7153089,0.259521 0.2140824,0.142721 0.3906817,0.335032 0.5146958,0.560471 0.1093882,0.19653 0.2565316,0.369589 0.4329269,0.50918 0.1763952,0.139591 0.3786408,0.243058 0.5951043,0.304283 0.2164633,0.0613 0.4428588,0.07931 0.666261,0.05299 0.2234022,-0.02632 0.4394575,-0.09646 0.6356486,-0.206461 0.034625,-0.40673 0.2159186,-0.786999 0.5100694,-1.06999 C 4.7800068,11.527825 2.9199996,10.837831 2.9199996,7.7778596 2.9087751,6.9828328 3.2021096,6.2135882 3.7400028,5.6279473 3.495444,4.9369332 3.5240155,4.1785729 3.8200028,3.5079668 c 0,0 0.6699345,-0.2099982 2.2000084,0.8199923 1.3089846,-0.3599966 2.6908947,-0.3599966 3.9999468,0 1.530007,-1.0399904 2.200009,-0.8199923 2.200009,-0.8199923 0.295988,0.6706061 0.324627,1.4289664 0.08,2.1199805 0.539389,0.5846204 0.833132,1.3546134 0.820002,2.1499123 0,3.0699714 -1.870007,3.7499654 -3.6500136,3.9499634 0.1908851,0.193468 0.3378925,0.425846 0.43109,0.681151 0.093197,0.255439 0.1303406,0.527886 0.1089126,0.798835 0,1.070059 -0.01,1.929914 -0.01,2.199913 0,0.209998 0.15,0.459995 0.550002,0.379996 1.798918,-0.605641 3.324026,-1.830935 4.303077,-3.457043 0.97912,-1.626176 1.348373,-3.5473825 1.041977,-5.4206307 C 15.58862,5.0368672 14.626507,3.3334815 13.180311,2.104037 11.734182,0.87452445 9.8981216,0.19902041 7.999951,0.198 Z"
     fill="#000000"
     stroke-width="0.680305"
     id="path1"
     style="fill:#777777;fill-opacity:1" />
</svg>
